<svg width="24" height="24" viewBox="0 0 24 24" fill="none" xmlns="http://www.w3.org/2000/svg">
<path fill-rule="evenodd" clip-rule="evenodd" d="M12 23C18.0751 23 23 18.0751 23 12C23 5.92487 18.0751 1 12 1C5.92487 1 1 5.92487 1 12C1 18.0751 5.92487 23 12 23ZM17.0303 9.78033C17.3232 9.48744 17.3232 9.01256 17.0303 8.71967C16.7374 8.42678 16.2626 8.42678 15.9697 8.71967L11 13.6893L8.28033 10.9697C7.98744 10.6768 7.51256 10.6768 7.21967 10.9697C6.92678 11.2626 6.92678 11.7374 7.21967 12.0303L10.4697 15.2803C10.7626 15.5732 11.2374 15.5732 11.5303 15.2803L17.0303 9.78033Z" fill="#D72E36"/>
</svg>
